<svg width="382" height="201" viewBox="0 0 382 201" fill="none" xmlns="http://www.w3.org/2000/svg">
<path d="M200.276 53.602V147H188.082V104.656H140.512V147H128.318V53.602H140.512V94.606H188.082V53.602H200.276ZM293.055 53.602V147H280.861V104.656H233.291V147H221.097V53.602H233.291V94.606H280.861V53.602H293.055ZM376.321 80.938C376.321 88.71 373.641 95.1867 368.281 100.368C363.01 105.46 354.925 108.006 344.027 108.006H326.071V147H313.877V53.602H344.027C354.568 53.602 362.563 56.148 368.013 61.24C373.551 66.332 376.321 72.898 376.321 80.938ZM344.027 97.956C350.816 97.956 355.819 96.482 359.035 93.534C362.251 90.586 363.859 86.3873 363.859 80.938C363.859 69.414 357.248 63.652 344.027 63.652H326.071V97.956H344.027Z" fill="#007BFF"/>
<path d="M14.6132 166.411V183H12.4474V175.479H3.9984V183H1.8326V166.411H3.9984V173.694H12.4474V166.411H14.6132ZM30.2113 175.979C30.2113 176.392 30.1875 176.828 30.1399 177.288H19.7155C19.7948 178.573 20.2312 179.581 21.0245 180.311C21.8337 181.025 22.8095 181.382 23.9519 181.382C24.888 181.382 25.6655 181.167 26.2843 180.739C26.919 180.295 27.3632 179.708 27.6171 178.978H29.9495C29.6004 180.231 28.9023 181.255 27.8551 182.048C26.8079 182.825 25.5068 183.214 23.9519 183.214C22.7143 183.214 21.6036 182.937 20.6199 182.381C19.652 181.826 18.8904 181.04 18.3351 180.025C17.7798 178.994 17.5021 177.804 17.5021 176.455C17.5021 175.106 17.7718 173.924 18.3113 172.909C18.8508 171.893 19.6044 171.116 20.5723 170.576C21.556 170.021 22.6826 169.743 23.9519 169.743C25.1895 169.743 26.2843 170.013 27.2363 170.553C28.1883 171.092 28.9182 171.838 29.4259 172.79C29.9495 173.726 30.2113 174.789 30.2113 175.979ZM27.9741 175.527C27.9741 174.702 27.7916 173.996 27.4267 173.409C27.0618 172.806 26.562 172.353 25.9273 172.052C25.3085 171.735 24.6183 171.576 23.8567 171.576C22.7619 171.576 21.8258 171.925 21.0483 172.623C20.2867 173.321 19.8504 174.289 19.7393 175.527H27.9741ZM35.2359 165.388V183H33.0701V165.388H35.2359ZM41.0929 172.361C41.5213 171.616 42.156 170.997 42.9969 170.505C43.8537 169.997 44.8454 169.743 45.9719 169.743C47.1302 169.743 48.1774 170.021 49.1135 170.576C50.0655 171.132 50.8113 171.917 51.3507 172.933C51.8902 173.932 52.1599 175.098 52.1599 176.431C52.1599 177.748 51.8902 178.922 51.3507 179.954C50.8113 180.985 50.0655 181.786 49.1135 182.357C48.1774 182.929 47.1302 183.214 45.9719 183.214C44.8613 183.214 43.8775 182.968 43.0207 182.476C42.1798 181.969 41.5372 181.342 41.0929 180.596V189.188H38.9271V169.958H41.0929V172.361ZM49.9465 176.431C49.9465 175.447 49.7482 174.591 49.3515 173.861C48.9549 173.131 48.4154 172.576 47.7331 172.195C47.0667 171.814 46.3289 171.624 45.5197 171.624C44.7264 171.624 43.9886 171.822 43.3063 172.219C42.6399 172.599 42.1005 173.163 41.6879 173.908C41.2913 174.638 41.0929 175.487 41.0929 176.455C41.0929 177.439 41.2913 178.303 41.6879 179.049C42.1005 179.779 42.6399 180.342 43.3063 180.739C43.9886 181.12 44.7264 181.31 45.5197 181.31C46.3289 181.31 47.0667 181.12 47.7331 180.739C48.4154 180.342 48.9549 179.779 49.3515 179.049C49.7482 178.303 49.9465 177.431 49.9465 176.431ZM56.1293 167.839C55.7168 167.839 55.3677 167.697 55.0821 167.411C54.7965 167.125 54.6537 166.776 54.6537 166.364C54.6537 165.951 54.7965 165.602 55.0821 165.317C55.3677 165.031 55.7168 164.888 56.1293 164.888C56.526 164.888 56.8592 165.031 57.1289 165.317C57.4145 165.602 57.5573 165.951 57.5573 166.364C57.5573 166.776 57.4145 167.125 57.1289 167.411C56.8592 167.697 56.526 167.839 56.1293 167.839ZM57.1765 169.958V183H55.0107V169.958H57.1765ZM67.2224 169.72C68.809 169.72 70.0942 170.204 71.078 171.171C72.0617 172.123 72.5536 173.504 72.5536 175.313V183H70.4116V175.622C70.4116 174.321 70.0863 173.329 69.4358 172.647C68.7852 171.949 67.8967 171.6 66.7702 171.6C65.6278 171.6 64.7154 171.957 64.0332 172.671C63.3668 173.385 63.0336 174.424 63.0336 175.789V183H60.8678V169.958H63.0336V171.814C63.462 171.148 64.0411 170.632 64.771 170.267C65.5167 169.902 66.3338 169.72 67.2224 169.72ZM81.4702 169.743C82.5967 169.743 83.5805 169.989 84.4214 170.481C85.2782 170.973 85.9129 171.592 86.3254 172.338V169.958H88.515V183.286C88.515 184.476 88.2611 185.531 87.7534 186.451C87.2457 187.387 86.5158 188.117 85.5638 188.641C84.6277 189.164 83.5329 189.426 82.2794 189.426C80.5658 189.426 79.1378 189.021 77.9954 188.212C76.853 187.403 76.1787 186.3 75.9724 184.904H78.1144C78.3524 185.697 78.8443 186.332 79.59 186.808C80.3357 187.3 81.2322 187.546 82.2794 187.546C83.4694 187.546 84.4373 187.173 85.183 186.427C85.9446 185.681 86.3254 184.634 86.3254 183.286V180.549C85.897 181.31 85.2623 181.945 84.4214 182.453C83.5805 182.96 82.5967 183.214 81.4702 183.214C80.3119 183.214 79.2568 182.929 78.3048 182.357C77.3687 181.786 76.6309 180.985 76.0914 179.954C75.5519 178.922 75.2822 177.748 75.2822 176.431C75.2822 175.098 75.5519 173.932 76.0914 172.933C76.6309 171.917 77.3687 171.132 78.3048 170.576C79.2568 170.021 80.3119 169.743 81.4702 169.743ZM86.3254 176.455C86.3254 175.471 86.1271 174.614 85.7304 173.885C85.3337 173.155 84.7943 172.599 84.112 172.219C83.4456 171.822 82.7078 171.624 81.8986 171.624C81.0894 171.624 80.3516 171.814 79.6852 172.195C79.0188 172.576 78.4873 173.131 78.0906 173.861C77.6939 174.591 77.4956 175.447 77.4956 176.431C77.4956 177.431 77.6939 178.303 78.0906 179.049C78.4873 179.779 79.0188 180.342 79.6852 180.739C80.3516 181.12 81.0894 181.31 81.8986 181.31C82.7078 181.31 83.4456 181.12 84.112 180.739C84.7943 180.342 85.3337 179.779 85.7304 179.049C86.1271 178.303 86.3254 177.439 86.3254 176.455ZM111.301 166.411V183H109.135V175.479H100.686V183H98.5201V166.411H100.686V173.694H109.135V166.411H111.301ZM120.687 183.214C119.465 183.214 118.355 182.937 117.355 182.381C116.371 181.826 115.594 181.04 115.023 180.025C114.467 178.994 114.19 177.804 114.19 176.455C114.19 175.122 114.475 173.948 115.046 172.933C115.633 171.901 116.427 171.116 117.426 170.576C118.426 170.021 119.545 169.743 120.782 169.743C122.02 169.743 123.138 170.021 124.138 170.576C125.138 171.116 125.923 171.893 126.494 172.909C127.081 173.924 127.375 175.106 127.375 176.455C127.375 177.804 127.073 178.994 126.47 180.025C125.883 181.04 125.082 181.826 124.067 182.381C123.051 182.937 121.925 183.214 120.687 183.214ZM120.687 181.31C121.464 181.31 122.194 181.128 122.877 180.763C123.559 180.398 124.106 179.85 124.519 179.121C124.947 178.391 125.161 177.502 125.161 176.455C125.161 175.408 124.955 174.519 124.543 173.789C124.13 173.06 123.591 172.52 122.924 172.171C122.258 171.806 121.536 171.624 120.758 171.624C119.965 171.624 119.235 171.806 118.569 172.171C117.918 172.52 117.395 173.06 116.998 173.789C116.601 174.519 116.403 175.408 116.403 176.455C116.403 177.518 116.593 178.415 116.974 179.144C117.371 179.874 117.894 180.422 118.545 180.787C119.196 181.136 119.91 181.31 120.687 181.31ZM132.388 172.361C132.817 171.616 133.451 170.997 134.292 170.505C135.149 169.997 136.141 169.743 137.267 169.743C138.425 169.743 139.473 170.021 140.409 170.576C141.361 171.132 142.107 171.917 142.646 172.933C143.185 173.932 143.455 175.098 143.455 176.431C143.455 177.748 143.185 178.922 142.646 179.954C142.107 180.985 141.361 181.786 140.409 182.357C139.473 182.929 138.425 183.214 137.267 183.214C136.157 183.214 135.173 182.968 134.316 182.476C133.475 181.969 132.832 181.342 132.388 180.596V189.188H130.222V169.958H132.388V172.361ZM141.242 176.431C141.242 175.447 141.043 174.591 140.647 173.861C140.25 173.131 139.711 172.576 139.028 172.195C138.362 171.814 137.624 171.624 136.815 171.624C136.022 171.624 135.284 171.822 134.602 172.219C133.935 172.599 133.396 173.163 132.983 173.908C132.587 174.638 132.388 175.487 132.388 176.455C132.388 177.439 132.587 178.303 132.983 179.049C133.396 179.779 133.935 180.342 134.602 180.739C135.284 181.12 136.022 181.31 136.815 181.31C137.624 181.31 138.362 181.12 139.028 180.739C139.711 180.342 140.25 179.779 140.647 179.049C141.043 178.303 141.242 177.431 141.242 176.431ZM158.206 175.979C158.206 176.392 158.182 176.828 158.135 177.288H147.71C147.79 178.573 148.226 179.581 149.019 180.311C149.828 181.025 150.804 181.382 151.947 181.382C152.883 181.382 153.66 181.167 154.279 180.739C154.914 180.295 155.358 179.708 155.612 178.978H157.944C157.595 180.231 156.897 181.255 155.85 182.048C154.803 182.825 153.502 183.214 151.947 183.214C150.709 183.214 149.598 182.937 148.615 182.381C147.647 181.826 146.885 181.04 146.33 180.025C145.775 178.994 145.497 177.804 145.497 176.455C145.497 175.106 145.767 173.924 146.306 172.909C146.846 171.893 147.599 171.116 148.567 170.576C149.551 170.021 150.677 169.743 151.947 169.743C153.184 169.743 154.279 170.013 155.231 170.553C156.183 171.092 156.913 171.838 157.421 172.79C157.944 173.726 158.206 174.789 158.206 175.979ZM155.969 175.527C155.969 174.702 155.786 173.996 155.421 173.409C155.057 172.806 154.557 172.353 153.922 172.052C153.303 171.735 152.613 171.576 151.851 171.576C150.757 171.576 149.821 171.925 149.043 172.623C148.281 173.321 147.845 174.289 147.734 175.527H155.969ZM163.231 165.388V183H161.065V165.388H163.231ZM178.822 175.979C178.822 176.392 178.798 176.828 178.75 177.288H168.326C168.405 178.573 168.842 179.581 169.635 180.311C170.444 181.025 171.42 181.382 172.562 181.382C173.499 181.382 174.276 181.167 174.895 180.739C175.53 180.295 175.974 179.708 176.228 178.978H178.56C178.211 180.231 177.513 181.255 176.466 182.048C175.418 182.825 174.117 183.214 172.562 183.214C171.325 183.214 170.214 182.937 169.23 182.381C168.263 181.826 167.501 181.04 166.946 180.025C166.39 178.994 166.113 177.804 166.113 176.455C166.113 175.106 166.382 173.924 166.922 172.909C167.461 171.893 168.215 171.116 169.183 170.576C170.167 170.021 171.293 169.743 172.562 169.743C173.8 169.743 174.895 170.013 175.847 170.553C176.799 171.092 177.529 171.838 178.036 172.79C178.56 173.726 178.822 174.789 178.822 175.979ZM176.585 175.527C176.585 174.702 176.402 173.996 176.037 173.409C175.672 172.806 175.173 172.353 174.538 172.052C173.919 171.735 173.229 171.576 172.467 171.576C171.372 171.576 170.436 171.925 169.659 172.623C168.897 173.321 168.461 174.289 168.35 175.527H176.585ZM186.298 183.214C185.298 183.214 184.402 183.048 183.608 182.714C182.815 182.365 182.188 181.889 181.728 181.286C181.268 180.668 181.014 179.962 180.967 179.168H183.204C183.267 179.819 183.569 180.35 184.108 180.763C184.664 181.175 185.386 181.382 186.274 181.382C187.099 181.382 187.75 181.199 188.226 180.834C188.702 180.469 188.94 180.009 188.94 179.454C188.94 178.883 188.686 178.462 188.178 178.192C187.67 177.907 186.885 177.629 185.822 177.359C184.854 177.106 184.061 176.852 183.442 176.598C182.839 176.328 182.315 175.939 181.871 175.432C181.443 174.908 181.228 174.226 181.228 173.385C181.228 172.718 181.427 172.108 181.823 171.552C182.22 170.997 182.783 170.561 183.513 170.243C184.243 169.91 185.076 169.743 186.012 169.743C187.456 169.743 188.622 170.108 189.511 170.838C190.399 171.568 190.875 172.568 190.939 173.837H188.773C188.725 173.155 188.448 172.607 187.94 172.195C187.448 171.782 186.782 171.576 185.941 171.576C185.163 171.576 184.545 171.743 184.084 172.076C183.624 172.409 183.394 172.845 183.394 173.385C183.394 173.813 183.529 174.17 183.799 174.456C184.084 174.726 184.434 174.948 184.846 175.122C185.274 175.281 185.862 175.463 186.607 175.67C187.543 175.923 188.305 176.177 188.892 176.431C189.479 176.669 189.979 177.034 190.391 177.526C190.82 178.018 191.042 178.66 191.058 179.454C191.058 180.168 190.86 180.81 190.463 181.382C190.066 181.953 189.503 182.405 188.773 182.738C188.059 183.056 187.234 183.214 186.298 183.214ZM198.732 183.214C197.733 183.214 196.836 183.048 196.043 182.714C195.25 182.365 194.623 181.889 194.163 181.286C193.703 180.668 193.449 179.962 193.401 179.168H195.638C195.702 179.819 196.003 180.35 196.543 180.763C197.098 181.175 197.82 181.382 198.709 181.382C199.534 181.382 200.184 181.199 200.66 180.834C201.136 180.469 201.374 180.009 201.374 179.454C201.374 178.883 201.12 178.462 200.613 178.192C200.105 177.907 199.319 177.629 198.256 177.359C197.289 177.106 196.495 176.852 195.876 176.598C195.273 176.328 194.75 175.939 194.306 175.432C193.877 174.908 193.663 174.226 193.663 173.385C193.663 172.718 193.861 172.108 194.258 171.552C194.655 170.997 195.218 170.561 195.948 170.243C196.678 169.91 197.511 169.743 198.447 169.743C199.891 169.743 201.057 170.108 201.945 170.838C202.834 171.568 203.31 172.568 203.373 173.837H201.208C201.16 173.155 200.882 172.607 200.375 172.195C199.883 171.782 199.216 171.576 198.375 171.576C197.598 171.576 196.979 171.743 196.519 172.076C196.059 172.409 195.829 172.845 195.829 173.385C195.829 173.813 195.964 174.17 196.233 174.456C196.519 174.726 196.868 174.948 197.281 175.122C197.709 175.281 198.296 175.463 199.042 175.67C199.978 175.923 200.74 176.177 201.327 176.431C201.914 176.669 202.413 177.034 202.826 177.526C203.254 178.018 203.477 178.66 203.492 179.454C203.492 180.168 203.294 180.81 202.897 181.382C202.501 181.953 201.937 182.405 201.208 182.738C200.494 183.056 199.669 183.214 198.732 183.214ZM223.986 171.267C223.986 172.647 223.51 173.797 222.558 174.718C221.622 175.622 220.186 176.074 218.25 176.074H215.061V183H212.895V166.411H218.25C220.122 166.411 221.542 166.864 222.51 167.768C223.494 168.672 223.986 169.839 223.986 171.267ZM218.25 174.289C219.456 174.289 220.344 174.027 220.916 173.504C221.487 172.98 221.772 172.234 221.772 171.267C221.772 169.22 220.598 168.196 218.25 168.196H215.061V174.289H218.25ZM228.843 172.076C229.224 171.33 229.764 170.751 230.462 170.338C231.176 169.926 232.04 169.72 233.056 169.72V171.957H232.485C230.057 171.957 228.843 173.274 228.843 175.908V183H226.678V169.958H228.843V172.076ZM241.244 183.214C240.023 183.214 238.912 182.937 237.912 182.381C236.929 181.826 236.151 181.04 235.58 180.025C235.025 178.994 234.747 177.804 234.747 176.455C234.747 175.122 235.032 173.948 235.604 172.933C236.191 171.901 236.984 171.116 237.984 170.576C238.983 170.021 240.102 169.743 241.339 169.743C242.577 169.743 243.696 170.021 244.695 170.576C245.695 171.116 246.48 171.893 247.051 172.909C247.639 173.924 247.932 175.106 247.932 176.455C247.932 177.804 247.631 178.994 247.028 180.025C246.441 181.04 245.639 181.826 244.624 182.381C243.608 182.937 242.482 183.214 241.244 183.214ZM241.244 181.31C242.022 181.31 242.752 181.128 243.434 180.763C244.116 180.398 244.664 179.85 245.076 179.121C245.504 178.391 245.719 177.502 245.719 176.455C245.719 175.408 245.512 174.519 245.1 173.789C244.687 173.06 244.148 172.52 243.481 172.171C242.815 171.806 242.093 171.624 241.316 171.624C240.522 171.624 239.792 171.806 239.126 172.171C238.476 172.52 237.952 173.06 237.555 173.789C237.159 174.519 236.96 175.408 236.96 176.455C236.96 177.518 237.151 178.415 237.531 179.144C237.928 179.874 238.452 180.422 239.102 180.787C239.753 181.136 240.467 181.31 241.244 181.31ZM256.158 169.743C257.285 169.743 258.269 169.989 259.11 170.481C259.966 170.973 260.601 171.592 261.014 172.338V169.958H263.203V183.286C263.203 184.476 262.949 185.531 262.442 186.451C261.934 187.387 261.204 188.117 260.252 188.641C259.316 189.164 258.221 189.426 256.968 189.426C255.254 189.426 253.826 189.021 252.684 188.212C251.541 187.403 250.867 186.3 250.661 184.904H252.803C253.041 185.697 253.533 186.332 254.278 186.808C255.024 187.3 255.92 187.546 256.968 187.546C258.158 187.546 259.126 187.173 259.871 186.427C260.633 185.681 261.014 184.634 261.014 183.286V180.549C260.585 181.31 259.951 181.945 259.11 182.453C258.269 182.96 257.285 183.214 256.158 183.214C255 183.214 253.945 182.929 252.993 182.357C252.057 181.786 251.319 180.985 250.78 179.954C250.24 178.922 249.97 177.748 249.97 176.431C249.97 175.098 250.24 173.932 250.78 172.933C251.319 171.917 252.057 171.132 252.993 170.576C253.945 170.021 255 169.743 256.158 169.743ZM261.014 176.455C261.014 175.471 260.815 174.614 260.419 173.885C260.022 173.155 259.483 172.599 258.8 172.219C258.134 171.822 257.396 171.624 256.587 171.624C255.778 171.624 255.04 171.814 254.373 172.195C253.707 172.576 253.176 173.131 252.779 173.861C252.382 174.591 252.184 175.447 252.184 176.431C252.184 177.431 252.382 178.303 252.779 179.049C253.176 179.779 253.707 180.342 254.373 180.739C255.04 181.12 255.778 181.31 256.587 181.31C257.396 181.31 258.134 181.12 258.8 180.739C259.483 180.342 260.022 179.779 260.419 179.049C260.815 178.303 261.014 177.439 261.014 176.455ZM269.029 172.076C269.41 171.33 269.949 170.751 270.647 170.338C271.361 169.926 272.226 169.72 273.242 169.72V171.957H272.67C270.243 171.957 269.029 173.274 269.029 175.908V183H266.863V169.958H269.029V172.076ZM274.933 176.431C274.933 175.098 275.202 173.932 275.742 172.933C276.281 171.917 277.019 171.132 277.955 170.576C278.907 170.021 279.962 169.743 281.121 169.743C282.263 169.743 283.255 169.989 284.096 170.481C284.937 170.973 285.563 171.592 285.976 172.338V169.958H288.165V183H285.976V180.572C285.547 181.334 284.905 181.969 284.048 182.476C283.207 182.968 282.223 183.214 281.097 183.214C279.939 183.214 278.891 182.929 277.955 182.357C277.019 181.786 276.281 180.985 275.742 179.954C275.202 178.922 274.933 177.748 274.933 176.431ZM285.976 176.455C285.976 175.471 285.777 174.614 285.381 173.885C284.984 173.155 284.445 172.599 283.762 172.219C283.096 171.822 282.358 171.624 281.549 171.624C280.74 171.624 280.002 171.814 279.336 172.195C278.669 172.576 278.138 173.131 277.741 173.861C277.344 174.591 277.146 175.447 277.146 176.431C277.146 177.431 277.344 178.303 277.741 179.049C278.138 179.779 278.669 180.342 279.336 180.739C280.002 181.12 280.74 181.31 281.549 181.31C282.358 181.31 283.096 181.12 283.762 180.739C284.445 180.342 284.984 179.779 285.381 179.049C285.777 178.303 285.976 177.439 285.976 176.455ZM307.51 169.72C308.525 169.72 309.429 169.934 310.223 170.362C311.016 170.775 311.643 171.401 312.103 172.242C312.563 173.083 312.793 174.107 312.793 175.313V183H310.651V175.622C310.651 174.321 310.326 173.329 309.675 172.647C309.041 171.949 308.176 171.6 307.081 171.6C305.955 171.6 305.058 171.965 304.392 172.695C303.725 173.409 303.392 174.448 303.392 175.812V183H301.25V175.622C301.25 174.321 300.925 173.329 300.274 172.647C299.64 171.949 298.775 171.6 297.68 171.6C296.554 171.6 295.657 171.965 294.991 172.695C294.324 173.409 293.991 174.448 293.991 175.812V183H291.825V169.958H293.991V171.838C294.42 171.156 294.991 170.632 295.705 170.267C296.435 169.902 297.236 169.72 298.109 169.72C299.203 169.72 300.171 169.966 301.012 170.457C301.853 170.949 302.48 171.671 302.892 172.623C303.257 171.703 303.86 170.989 304.701 170.481C305.542 169.973 306.478 169.72 307.51 169.72ZM332.03 169.72C333.046 169.72 333.95 169.934 334.743 170.362C335.537 170.775 336.163 171.401 336.623 172.242C337.084 173.083 337.314 174.107 337.314 175.313V183H335.172V175.622C335.172 174.321 334.846 173.329 334.196 172.647C333.561 171.949 332.696 171.6 331.602 171.6C330.475 171.6 329.579 171.965 328.912 172.695C328.246 173.409 327.913 174.448 327.913 175.812V183H325.771V175.622C325.771 174.321 325.445 173.329 324.795 172.647C324.16 171.949 323.295 171.6 322.201 171.6C321.074 171.6 320.178 171.965 319.511 172.695C318.845 173.409 318.512 174.448 318.512 175.812V183H316.346V169.958H318.512V171.838C318.94 171.156 319.511 170.632 320.225 170.267C320.955 169.902 321.756 169.72 322.629 169.72C323.724 169.72 324.692 169.966 325.533 170.457C326.374 170.949 327 171.671 327.413 172.623C327.778 171.703 328.381 170.989 329.222 170.481C330.063 169.973 330.999 169.72 332.03 169.72ZM352.766 175.979C352.766 176.392 352.743 176.828 352.695 177.288H342.271C342.35 178.573 342.786 179.581 343.58 180.311C344.389 181.025 345.365 181.382 346.507 181.382C347.443 181.382 348.221 181.167 348.839 180.739C349.474 180.295 349.918 179.708 350.172 178.978H352.505C352.156 180.231 351.457 181.255 350.41 182.048C349.363 182.825 348.062 183.214 346.507 183.214C345.269 183.214 344.159 182.937 343.175 182.381C342.207 181.826 341.446 181.04 340.89 180.025C340.335 178.994 340.057 177.804 340.057 176.455C340.057 175.106 340.327 173.924 340.866 172.909C341.406 171.893 342.16 171.116 343.127 170.576C344.111 170.021 345.238 169.743 346.507 169.743C347.745 169.743 348.839 170.013 349.791 170.553C350.743 171.092 351.473 171.838 351.981 172.79C352.505 173.726 352.766 174.789 352.766 175.979ZM350.529 175.527C350.529 174.702 350.347 173.996 349.982 173.409C349.617 172.806 349.117 172.353 348.482 172.052C347.864 171.735 347.173 171.576 346.412 171.576C345.317 171.576 344.381 171.925 343.603 172.623C342.842 173.321 342.405 174.289 342.294 175.527H350.529ZM357.791 172.076C358.172 171.33 358.711 170.751 359.409 170.338C360.123 169.926 360.988 169.72 362.004 169.72V171.957H361.432C359.005 171.957 357.791 173.274 357.791 175.908V183H355.625V169.958H357.791V172.076ZM369.121 183.214C368.121 183.214 367.225 183.048 366.431 182.714C365.638 182.365 365.011 181.889 364.551 181.286C364.091 180.668 363.837 179.962 363.79 179.168H366.027C366.09 179.819 366.392 180.35 366.931 180.763C367.487 181.175 368.209 181.382 369.097 181.382C369.922 181.382 370.573 181.199 371.049 180.834C371.525 180.469 371.763 180.009 371.763 179.454C371.763 178.883 371.509 178.462 371.001 178.192C370.493 177.907 369.708 177.629 368.645 177.359C367.677 177.106 366.884 176.852 366.265 176.598C365.662 176.328 365.138 175.939 364.694 175.432C364.266 174.908 364.051 174.226 364.051 173.385C364.051 172.718 364.25 172.108 364.646 171.552C365.043 170.997 365.606 170.561 366.336 170.243C367.066 169.91 367.899 169.743 368.835 169.743C370.279 169.743 371.445 170.108 372.334 170.838C373.222 171.568 373.698 172.568 373.762 173.837H371.596C371.548 173.155 371.271 172.607 370.763 172.195C370.271 171.782 369.605 171.576 368.764 171.576C367.986 171.576 367.368 171.743 366.907 172.076C366.447 172.409 366.217 172.845 366.217 173.385C366.217 173.813 366.352 174.17 366.622 174.456C366.907 174.726 367.257 174.948 367.669 175.122C368.097 175.281 368.685 175.463 369.43 175.67C370.366 175.923 371.128 176.177 371.715 176.431C372.302 176.669 372.802 177.034 373.214 177.526C373.643 178.018 373.865 178.66 373.881 179.454C373.881 180.168 373.683 180.81 373.286 181.382C372.889 181.953 372.326 182.405 371.596 182.738C370.882 183.056 370.057 183.214 369.121 183.214Z" fill="#303030"/>
<path d="M72.7608 46.043C72.7369 46.0669 72.3424 46.1148 71.8763 46.1508C70.143 46.2945 67.6209 46.8815 66.3539 47.4445C66.067 47.5763 65.816 47.6721 65.7682 47.6721C65.7323 47.6721 65.3498 47.8279 64.9195 48.0315C64.5012 48.2232 64.1067 48.3909 64.047 48.3909C63.9872 48.3909 63.9274 48.4388 63.9035 48.4867C63.8916 48.5466 63.4613 48.8221 62.9712 49.1096C60.7957 50.3674 58.5366 52.356 57.1141 54.2487C56.9468 54.4763 56.6838 54.8117 56.5165 55.0034L56.2177 55.3508L55.4766 54.4164C54.1498 52.7393 51.6038 50.4513 50.0498 49.5289C49.8227 49.3971 49.3446 49.1216 48.986 48.906C48.6274 48.6904 48.2449 48.4867 48.1493 48.4388C48.0537 48.4029 47.5636 48.1872 47.0735 47.9596C45.6511 47.3247 44.4199 46.9414 42.4238 46.5341C41.4556 46.3305 38.7063 46.1747 37.6903 46.2706C31.8811 46.7737 26.3946 49.7805 22.8923 54.3685C22.4023 55.0034 21.8644 55.77 21.6851 56.0695C21.5058 56.357 21.3145 56.6805 21.2548 56.7763C20.9201 57.3273 19.9997 59.4716 19.6889 60.4539C19.3064 61.6159 18.9359 63.269 18.7685 64.443C18.6609 65.2815 18.6609 69.3904 18.7685 70.4924C18.8761 71.6065 19.2825 73.9185 19.5096 74.769C19.6172 75.1523 19.7845 75.7753 19.8802 76.1466C20.0953 76.9253 20.5137 78.1831 20.8962 79.1773C21.0396 79.5367 21.2309 80.0518 21.3265 80.3034C21.6253 81.118 23.2868 84.4602 23.9203 85.5263C25.1276 87.5508 26.562 89.743 26.8249 89.9706C26.9206 90.0424 26.9923 90.1622 26.9923 90.2221C26.9923 90.282 27.0998 90.4857 27.2433 90.6534C27.3748 90.8331 27.7214 91.2763 27.9844 91.6477C28.9048 92.8815 30.877 95.2654 31.5584 95.9602C31.905 96.3195 32.2636 96.4513 32.67 96.3794C33.1601 96.2836 33.3752 96.044 33.686 95.2174C34.4988 93.0013 36.5548 91.3003 38.8617 90.9169C40.057 90.7133 42.0173 90.8331 42.6509 91.1565C42.9019 91.2883 43.1768 91.3961 43.2366 91.3961C43.5115 91.3961 44.7905 92.3185 45.4838 93.0133C46.3683 93.9117 47.1931 95.481 47.6712 97.206C47.7309 97.3977 48.1852 98.7273 48.6872 100.141C49.1892 101.554 49.6434 102.872 49.7032 103.076C49.763 103.267 50.0259 104.058 50.3009 104.813C50.5638 105.567 51.0061 106.837 51.2691 107.628C51.5201 108.418 51.783 109.173 51.8428 109.305C51.9026 109.437 51.9863 109.652 52.0102 109.784C52.1536 110.359 53.5282 114.192 53.6477 114.324C53.7075 114.42 54.2932 114.803 54.9267 115.187C56.4209 116.085 56.5882 116.085 58.1063 115.175C58.7398 114.803 59.3135 114.432 59.3733 114.348C59.433 114.276 60.6284 110.79 62.0269 106.61C63.4134 102.429 64.8717 98.0805 65.2542 96.9424C66.0431 94.5825 66.3778 93.8878 67.2026 92.9773C69.0434 90.9648 71.9838 90.1383 74.6852 90.881C75.6415 91.1565 76.3109 91.5279 77.2432 92.3185C78.1995 93.1211 78.7613 93.8758 79.1198 94.87C79.4545 95.8044 79.9088 96.2477 80.4466 96.1398C80.9487 96.044 81.0084 95.9841 82.0962 94.7503C84.1999 92.3664 87.5229 87.6586 88.8019 85.2508C88.8616 85.143 88.9573 84.9513 89.029 84.8315C89.4593 84.0768 90.2123 82.5794 90.547 81.8128C90.7622 81.3216 91.0252 80.7466 91.1208 80.5549C91.2164 80.3513 91.4794 79.6565 91.7184 78.9977C91.9575 78.3388 92.1966 77.6799 92.2563 77.5242C92.328 77.3685 92.3759 77.1169 92.3759 76.9612C92.3759 76.7935 92.4237 76.6617 92.4715 76.6617C92.5552 76.6617 92.7823 75.907 92.9257 75.1404C92.9377 75.0685 93.0094 74.8169 93.0811 74.6013C93.2604 74.0383 93.6548 71.6664 93.8222 70.2049C93.9776 68.7914 93.9059 64.431 93.7027 63.6643C93.6429 63.4008 93.5473 62.9935 93.5114 62.7659C93.093 60.3461 91.6826 57.0279 90.1884 54.9075C87.0926 50.5112 82.0842 47.3008 76.8966 46.3424C75.5817 46.1029 72.9042 45.9112 72.7608 46.043Z" fill="#007BFF"/>
<path d="M103.779 70.5523C102.106 70.7919 100.731 72.0497 100.444 73.583C100.396 73.8226 100.349 74.0263 100.337 74.0263C100.337 74.0382 99.978 74.0622 99.5477 74.0981C98.5556 74.17 98.0775 74.3257 97.3723 74.769C96.2248 75.4877 95.8662 76.2424 95.4359 78.8179C95.4 79.0455 95.3402 79.345 95.3163 79.4768C95.2924 79.6086 95.1848 80.3393 95.0773 81.094C94.9577 81.8487 94.8262 82.5554 94.7784 82.6513C94.7187 82.7471 94.4557 82.8669 94.1688 82.9148C92.5312 83.1903 91.2523 84.6039 90.9295 86.4846C90.8698 86.844 90.7622 87.5507 90.7024 88.0419C90.6427 88.533 90.559 89.0721 90.5231 89.2398C90.4992 89.4075 90.4394 89.6711 90.4036 89.8388C90.3677 90.0065 90.3199 90.3778 90.2841 90.6773C90.2602 90.9768 90.1884 91.4799 90.1167 91.8153C90.0569 92.1388 89.9733 92.6539 89.9255 92.9534C89.8896 93.2528 89.794 93.8159 89.7342 94.2112C89.6744 94.6065 89.5669 95.2773 89.4952 95.7086C89.4354 96.1398 89.3517 96.619 89.3278 96.7867C89.2919 96.9544 89.1605 97.8169 89.017 98.7034C88.8855 99.5898 88.766 100.428 88.7302 100.56C88.7062 100.692 88.6823 100.884 88.6823 101.003C88.6704 101.111 88.013 101.83 87.2121 102.621C86.4112 103.399 84.941 104.825 83.9489 105.795C80.2434 109.425 79.3948 110.239 78.8688 110.671C78.57 110.91 78.2712 111.162 78.1875 111.246C78.1038 111.317 77.6496 111.533 77.1715 111.725C76.4065 112.012 76.1435 112.06 75.0797 112.06C74.3147 112.06 73.8007 112 73.717 111.916C73.6094 111.809 73.6334 111.581 73.8246 110.958C73.968 110.515 74.1354 109.928 74.1952 109.664C74.2669 109.401 74.3984 108.91 74.494 108.586C74.5896 108.251 74.8287 107.388 75.0319 106.669C75.2351 105.939 75.5578 104.789 75.761 104.094C75.9523 103.399 76.1913 102.537 76.2869 102.177C76.3826 101.818 76.6575 100.848 76.8966 100.021C77.6137 97.5773 77.554 96.1638 76.6814 94.7981C76.1794 94.0075 75.5339 93.5403 74.2669 93.0492C73.7051 92.8336 73.3106 92.7856 72.4739 92.7856C71.4818 92.7856 71.3264 92.8216 70.5016 93.2169C69.3422 93.7799 68.4816 94.6304 67.9437 95.7565C67.7166 96.2237 67.5014 96.7987 67.4536 97.0263C67.4058 97.2539 67.2862 97.6013 67.2026 97.8049C67.1189 97.9966 66.9396 98.5117 66.7962 98.9429C66.4137 100.153 65.5291 102.848 65.1466 103.974C64.6327 105.46 64.2143 106.753 62.5409 111.821C61.7041 114.324 60.9869 116.48 60.9391 116.612C60.8794 116.744 60.5686 117.69 60.2339 118.709C59.8992 119.727 59.4689 121.056 59.2777 121.655C58.943 122.674 58.5724 124.195 58.3573 125.357C58.3094 125.621 58.2616 125.92 58.2377 126.016C57.7835 128.376 57.7835 132.712 58.2377 136.438C58.4768 138.426 58.8952 141.337 59.1462 142.847C59.445 144.596 59.445 144.608 59.5526 145.422C59.6004 145.781 59.6721 146.177 59.696 146.285C59.7558 146.488 60.3415 146.5 69.7844 146.5C78.8091 146.5 79.8012 146.476 79.8729 146.309C79.9087 146.201 79.9446 144.44 79.9446 142.391C79.9446 137.636 80.088 136.581 81.0084 134.701L81.6061 133.467L85.1681 129.945C89.6027 125.573 92.9137 122.326 95.5434 119.775C96.6551 118.697 98.5437 116.864 99.727 115.702C100.91 114.54 102.787 112.707 103.899 111.629C106.122 109.461 106.899 108.526 107.497 107.268C108.011 106.19 108.584 104.417 108.811 103.196C108.919 102.668 109.05 102.046 109.11 101.818C109.206 101.447 109.505 99.5778 109.66 98.344C109.684 98.1164 109.827 97.2539 109.959 96.4273C110.102 95.6007 110.234 94.7143 110.246 94.4507C110.27 94.1872 110.401 93.157 110.533 92.1747C110.879 89.7429 110.879 89.683 111.023 88.4851C111.082 87.9101 111.202 86.9757 111.274 86.3888C111.345 85.8138 111.417 85.1789 111.441 84.9872C111.501 84.4961 111.943 81.094 112.039 80.3752C112.099 79.9799 112.158 79.4289 112.457 76.8414C112.517 76.2424 112.601 75.6075 112.624 75.4158C112.684 74.9007 112.421 73.6789 112.122 73.1039C111.824 72.5289 110.891 71.7742 110.031 71.4028C109.361 71.1153 108.333 71.0674 107.497 71.295C107.054 71.4148 106.899 71.4148 106.696 71.283C106.014 70.8518 105.632 70.6961 105.058 70.5643C104.723 70.4924 104.425 70.4445 104.413 70.4445C104.401 70.4565 104.114 70.5044 103.779 70.5523Z" fill="#007BFF"/>
<path d="M7.0186 71.1992C6.77954 71.2951 6.36118 71.5107 6.09821 71.6904C5.65594 71.9779 5.56032 72.0019 5.22563 71.8821C4.56821 71.6545 3.14579 71.7144 2.45251 72.0138C1.19743 72.5289 0.157505 73.9305 0.0140678 75.2722C-0.0217916 75.6076 0.0140678 76.2904 0.0857866 76.7815C0.169458 77.2727 0.25313 77.9435 0.28899 78.2789C0.312896 78.6024 0.420474 79.417 0.516099 80.0758C0.659537 81.142 0.82688 82.3758 0.874693 82.7112C0.874693 82.7711 0.922505 83.0946 0.970318 83.43C1.01813 83.7534 1.14961 84.6159 1.24524 85.3466C1.34086 86.0654 1.44844 86.8201 1.4843 87.0237C1.50821 87.2154 1.59188 87.8383 1.65165 88.4013C1.75922 89.3357 1.95047 90.6414 2.08196 91.3961C2.11782 91.5638 2.18954 92.1508 2.26126 92.7138C2.32102 93.2769 2.4286 94.0675 2.50032 94.4867C2.56008 94.894 2.6318 95.3732 2.65571 95.5649C2.70352 95.8883 3.12188 98.5237 3.26532 99.3024C3.30118 99.53 3.38485 100.021 3.44461 100.38C4.12594 104.465 4.77141 106.622 5.89501 108.598C6.40899 109.497 7.29352 110.431 10.9631 113.917C12.1824 115.067 13.3418 116.169 13.545 116.373C14.3339 117.139 18.5892 121.2 18.9359 121.536C19.9041 122.434 23.2509 125.609 24.4821 126.795C25.2352 127.513 26.6337 128.867 27.5899 129.789C31.1161 133.179 31.7257 133.862 32.2516 134.916C32.682 135.779 32.8732 136.354 33.1601 137.6C33.2079 137.779 33.2796 139.852 33.3274 142.188C33.3752 144.524 33.4231 146.452 33.435 146.464C33.435 146.488 37.9891 146.5 43.5474 146.5H53.6358L53.6956 146.105C53.7314 145.901 53.8151 145.338 53.8988 144.883C53.9705 144.416 54.0541 143.877 54.0661 143.685C54.09 143.482 54.2095 142.631 54.353 141.769C54.4845 140.906 54.6279 139.972 54.6518 139.672C54.6877 139.373 54.7833 138.678 54.855 138.115C55.118 136.007 55.2256 134.377 55.2614 131.646C55.2973 128.627 55.2136 127.645 54.6518 124.578C54.5681 124.171 53.7673 121.368 53.6238 120.985C53.4924 120.649 51.3766 114.528 50.9583 113.258C50.8029 112.791 50.1813 110.994 49.5837 109.245C48.986 107.496 48.4123 105.855 48.3286 105.591C48.0537 104.777 46.5237 100.357 46.2488 99.6019C46.1053 99.2065 45.8065 98.344 45.5913 97.6852C45.3642 97.0263 45.0415 96.1878 44.8741 95.8164C44.2406 94.4987 42.5672 93.205 41.2165 93.0133C40.9177 92.9774 40.583 92.9295 40.4515 92.9055C40.0331 92.8456 38.5749 93.193 37.9174 93.5045C36.5906 94.1274 35.5985 95.5769 35.4431 97.0982C35.3714 97.8289 35.5985 99.0867 36.0288 100.38C36.1364 100.68 36.2918 101.183 36.3755 101.519C36.5548 102.201 37.6306 105.951 38.288 108.167C38.527 108.994 38.802 109.928 38.8856 110.263C38.9813 110.587 39.1366 111.126 39.2323 111.461C39.3279 111.785 39.3877 112.084 39.3518 112.12C39.3159 112.156 38.7183 112.204 38.025 112.216C36.9492 112.252 36.6624 112.228 36.0288 111.988C34.6542 111.485 34.714 111.545 30.0403 107.077C24.2191 101.519 24.2431 101.554 24.1952 101.159C24.1713 100.955 24.0399 100.153 23.8964 99.3623C23.7649 98.5716 23.6215 97.7091 23.5856 97.4456C23.5378 97.1821 23.4422 96.5831 23.3466 96.1279C23.1673 95.1576 23.0358 94.4508 22.988 94.0315C22.9641 93.8638 22.8804 93.3847 22.8087 92.9534C22.737 92.5222 22.6294 91.8274 22.5577 91.3961C22.4262 90.5216 22.4142 90.4498 22.0795 88.5451C21.9481 87.7904 21.8285 87.0357 21.8046 86.868C21.6014 85.0831 20.2148 83.6216 18.4338 83.2982C17.9438 83.2024 17.8242 83.0706 17.7525 82.4357C17.7047 82.1242 17.6449 81.6571 17.6091 81.3935C17.5732 81.13 17.4656 80.5071 17.37 80.0159C17.2863 79.5248 17.1668 78.8779 17.119 78.5784C17.0712 78.2789 17.0234 78.0154 17.0114 77.9795C16.9995 77.9435 16.9516 77.7279 16.9038 77.5003C16.5213 75.8591 15.0152 74.6852 13.1147 74.5414L12.3138 74.4696L12.1704 73.9784C11.6206 72.1456 10.3057 71.1274 8.40516 71.0675C7.80751 71.0435 7.28157 71.1034 7.0186 71.1992Z" fill="#007BFF"/>
<path d="M44.735 81.7632L38.9992 76.2892L44.735 70.839H47.472L41.7124 76.2892L47.472 81.7632H44.735ZM60.1262 62.5804L53.605 89.046H51.463L57.9604 62.5804H60.1262ZM63.7577 70.839H66.4947L72.2543 76.2892L66.4947 81.7632H63.7577L69.5173 76.2892L63.7577 70.839Z" fill="white"/>
</svg>
