<svg width="33" height="129" viewBox="0 0 33 129" fill="none" xmlns="http://www.w3.org/2000/svg">
<path d="M19.8806 23.0392C16.6601 23.0392 13.935 21.9244 11.7054 19.6948C9.47579 17.4652 8.36099 14.7402 8.36099 11.5196C8.36099 8.29909 9.47579 5.57402 11.7054 3.34442C13.935 1.11482 16.6601 1.8334e-05 19.8806 1.8334e-05C22.9773 1.8334e-05 25.5785 1.11482 27.6842 3.34442C29.9138 5.57402 31.0286 8.29909 31.0286 11.5196C31.0286 14.7402 29.9138 17.4652 27.6842 19.6948C25.5785 21.9244 22.9773 23.0392 19.8806 23.0392ZM32.1434 78.2218L11.3338 128.202H-6.55785e-06L13.5634 78.2218H32.1434Z" fill="#007BFF"/>
</svg>
